<?xml version="1.0" encoding="UTF-8"?>
<svg version="1.1" xmlns="http://www.w3.org/2000/svg" width="234" height="234">
<path d="M0 0 C2.91593262 0.03452981 5.82885075 0.02051593 8.74487305 0.0012207 C37.13872006 0.02163044 63.02307458 10.71567907 83.32885742 30.67114258 C84.29463029 31.64419355 85.2583093 32.61932899 86.21948242 33.59692383 C87.02901367 34.40774414 87.83854492 35.21856445 88.67260742 36.05395508 C113.96706216 62.71926313 120.29054009 94.89929113 119.38989258 130.44213867 C118.39825086 159.22245155 102.23784822 185.44289637 82.05932617 205.06176758 C59.92683446 224.81965907 34.60636193 234.99074913 4.97827148 234.91259766 C2.48791277 234.90944714 -0.00124311 234.93293693 -2.49145508 234.95825195 C-13.96096404 235.00363941 -26.24084875 234.68955533 -36.78051758 229.59692383 C-40.60167359 220.18838859 -34.05038062 205.86152663 -30.37817383 196.99926758 C-27.28630949 190.41488167 -23.7121373 184.92782129 -18.78051758 179.59692383 C-18.13985352 178.85700195 -17.49918945 178.11708008 -16.83911133 177.35473633 C-9.07255947 168.89932509 0.43990282 163.44104641 10.21948242 157.59692383 C11.44786119 156.85298051 12.67577479 156.10826819 13.90307617 155.36254883 C16.89648588 153.55084842 19.90119547 151.75873377 22.90893555 149.97094727 C27.975354 146.95807712 33.0353629 143.9345288 38.09448242 140.90942383 C39.15296387 140.27931396 40.21144531 139.6492041 41.30200195 139 C54.22092374 132.26391149 54.22092374 132.26391149 63.21948242 121.59692383 C63.80077239 116.3426665 64.20871494 112.08077261 61.21948242 107.59692383 C60.22948242 106.93692383 59.23948242 106.27692383 58.21948242 105.59692383 C57.77975098 105.13398926 57.34001953 104.67105469 56.88696289 104.1940918 C54.65316503 102.05448629 52.19237518 100.6326154 49.53979492 99.04223633 C48.97969727 98.70451202 48.41959961 98.36678772 47.8425293 98.01882935 C46.01212521 96.91602347 44.17828981 95.81905933 42.34448242 94.72192383 C39.78083803 93.17954998 37.21896998 91.63423526 34.65698242 90.08911133 C34.01802032 89.70432617 33.37905823 89.31954102 32.72073364 88.9230957 C27.2308959 85.61389681 21.7828621 82.23997461 16.34448242 78.84692383 C9.10406031 74.34230559 1.81009244 69.93640728 -5.53051758 65.59692383 C-6.42367676 65.06873047 -7.31683594 64.54053711 -8.23706055 63.99633789 C-9.9337259 62.99784793 -11.6334187 62.00448044 -13.33642578 61.0168457 C-14.97022588 60.06767166 -16.59642714 59.10529965 -18.21484375 58.13012695 C-22.41631471 55.66099116 -25.58093009 53.92080362 -30.59301758 54.09692383 C-31.93299805 54.11239258 -31.93299805 54.11239258 -33.30004883 54.12817383 C-36.17075157 54.67066883 -37.54454624 55.77322486 -39.78051758 57.59692383 C-40.44051758 57.59692383 -41.10051758 57.59692383 -41.78051758 57.59692383 C-44.67651855 66.90343799 -45.19602378 75.71496746 -45.12109375 85.37133789 C-45.12024558 86.9198861 -45.12072632 88.46843552 -45.12242126 90.01698303 C-45.12327524 94.1836031 -45.10574736 98.34995935 -45.08469939 102.51651859 C-45.06583196 106.88467604 -45.06417427 111.25284081 -45.06062317 115.62103271 C-45.05133208 123.87615282 -45.02675844 132.13115246 -44.9965747 140.38621974 C-44.9629388 149.79138064 -44.94652166 159.19654755 -44.93148839 168.60175371 C-44.90020597 187.93354515 -44.84750315 207.26522477 -44.78051758 226.59692383 C-71.97621847 216.03801432 -92.92920042 191.92821153 -105.25317383 166.12036133 C-118.47273627 135.62408173 -118.45336783 101.47536772 -106.46801758 70.55786133 C-101.71660117 59.03231468 -94.64471134 49.17785972 -86.78051758 39.59692383 C-86.11149414 38.77321289 -85.4424707 37.94950195 -84.75317383 37.10083008 C-63.56179285 12.09586724 -32.19932887 -0.42078206 0 0 Z " fill="#0BCFDF" transform="translate(114.780517578125,-0.596923828125)"/>
<path d="M0 0 C0.33 0.66 0.66 1.32 1 2 C-0.03768781 4.54263855 -1.13456426 6.93239099 -2.375 9.375 C-2.73859619 10.09381348 -3.10219238 10.81262695 -3.47680664 11.55322266 C-17.41676083 38.31484155 -43.27098298 59.94952757 -71.94140625 69.34765625 C-80.46487008 71.86944459 -88.6008574 73.15274196 -97.46875 73.203125 C-98.26671997 73.20882507 -99.06468994 73.21452515 -99.88684082 73.22039795 C-101.57103166 73.22979973 -103.25524049 73.23636262 -104.93945312 73.24023438 C-107.46518827 73.24986723 -109.99008273 73.28090604 -112.515625 73.3125 C-124.07766016 73.38800578 -136.36247645 73.12612325 -147 68 C-148.76138261 63.77422682 -147.63032911 59.53174382 -146.75 55.1875 C-146.61231201 54.47916016 -146.47462402 53.77082031 -146.33276367 53.04101562 C-145.33781067 48.13340854 -144.01192384 43.59868307 -142 39 C-140.54195884 43.37412349 -142.23508206 46.93642541 -143.52929688 51.19921875 C-144.79597641 55.58625519 -145.19476632 59.44364844 -145 64 C-144.34 64 -143.68 64 -143 64 C-142.79761719 63.32710937 -142.59523438 62.65421875 -142.38671875 61.9609375 C-140.49153278 57.91431507 -137.76855217 54.94430999 -134.8125 51.625 C-134.26013672 50.99078125 -133.70777344 50.3565625 -133.13867188 49.703125 C-107.03973741 19.99702073 -73.06216851 6.95138119 -34.3125 3.875 C-30.57888433 3.56613954 -26.84594294 3.24985904 -23.11328125 2.9296875 C-21.78842209 2.817388 -21.78842209 2.817388 -20.4367981 2.70281982 C-13.56661657 2.10020498 -6.79334407 1.20520686 0 0 Z " fill="#008EA5" transform="translate(225,161)"/>
<path d="M0 0 C3.29009604 1.66630403 6.45436773 3.51478024 9.61474609 5.41357422 C10.33952148 5.84460449 11.06429687 6.27563477 11.81103516 6.71972656 C14.18582207 8.13401049 16.55661745 9.55483289 18.92724609 10.97607422 C20.62636832 11.99055882 22.32558865 13.00487912 24.02490234 14.01904297 C32.12359414 18.85936673 40.21407613 23.71167933 48.21630859 28.71044922 C51.36369555 30.65717312 54.56151356 32.5108056 57.76318359 34.36669922 C58.80692139 34.9804541 59.85065918 35.59420898 60.92602539 36.2265625 C63.02073182 37.45795029 65.12361029 38.67556085 67.23510742 39.87792969 C68.19956787 40.44914551 69.16402832 41.02036133 70.15771484 41.60888672 C71.02807373 42.11307129 71.89843262 42.61725586 72.79516602 43.13671875 C75.54072212 45.50532286 76.16601414 47.46918738 76.92724609 50.97607422 C75.16920794 55.66652001 71.68602391 57.8011203 67.55224609 60.28857422 C66.92431152 60.67899902 66.29637695 61.06942383 65.64941406 61.47167969 C63.74839102 62.6505531 61.83880936 63.81439282 59.92724609 64.97607422 C58.94755859 65.58064453 57.96787109 66.18521484 56.95849609 66.80810547 C54.92182765 68.0645985 52.88253641 69.31684548 50.84130859 70.56591797 C45.68279217 73.73218932 40.55788611 76.95242099 35.42724609 80.16357422 C32.30029938 82.11794662 29.17310456 84.07192162 26.04589844 86.02587891 C23.98551995 87.31430096 21.92593399 88.60399134 19.8671875 89.89501953 C16.99366087 91.69655939 14.11704188 93.49306229 11.23974609 95.28857422 C10.37349609 95.83344482 9.50724609 96.37831543 8.61474609 96.93969727 C7.80650391 97.44283447 6.99826172 97.94597168 6.16552734 98.46435547 C5.46468018 98.90303955 4.76383301 99.34172363 4.04174805 99.79370117 C1.92724609 100.97607422 1.92724609 100.97607422 -0.77514648 102.00805664 C-3.23036251 102.74910654 -3.23036251 102.74910654 -4.07275391 104.97607422 C-11.30149543 97.74733269 -11.30149543 97.74733269 -11.35491943 91.66827393 C-11.35244202 90.78250671 -11.3499646 89.8967395 -11.34741211 88.98413086 C-11.35252304 88.05231491 -11.35763397 87.12049896 -11.36289978 86.16044617 C-11.37684149 83.06897626 -11.37583556 79.97772814 -11.37353516 76.88623047 C-11.3774196 74.74393124 -11.38175374 72.60163278 -11.38652039 70.45933533 C-11.39399248 65.96431993 -11.39368418 61.46938305 -11.38842773 56.97436523 C-11.38263213 51.20591251 -11.39956165 45.43778077 -11.42277241 39.66938114 C-11.43748401 35.24366874 -11.43838495 30.81803408 -11.43526268 26.39230156 C-11.4357772 24.26517539 -11.44103929 22.13804502 -11.4510746 20.01094246 C-11.46337167 17.0395518 -11.45668777 14.0687922 -11.44506836 11.09741211 C-11.4527121 10.21366913 -11.46035583 9.32992615 -11.4682312 8.41940308 C-11.46121689 7.61041061 -11.45420258 6.80141815 -11.44697571 5.96791077 C-11.44714345 5.26533677 -11.44731119 4.56276278 -11.44748402 3.83889866 C-10.95267165 1.37913218 -10.02211809 0.51415364 -8.07275391 -1.02392578 C-4.52224219 -2.20742969 -3.29240747 -1.52427867 0 0 Z " fill="#FB9975" transform="translate(91.07275390625,65.02392578125)"/>
<path d="M0 0 C0.33 0 0.66 0 1 0 C2.1110134 28.6920004 2.12305588 57.36746972 2.06866455 86.07727051 C2.0582444 92.17976525 2.05382784 98.28226446 2.04882812 104.38476562 C2.03825603 116.25652172 2.02129915 128.12825863 2 140 C-2.41228484 138.2610523 -6.32048961 136.19161613 -10.375 133.75 C-11.03894775 133.35176025 -11.70289551 132.95352051 -12.38696289 132.54321289 C-16.99418109 129.73080862 -21.07871272 126.73000498 -25 123 C-24.01 122.01 -24.01 122.01 -23 121 C-21.66102417 121.95043374 -20.32894573 122.91059147 -19 123.875 C-18.2575 124.40867187 -17.515 124.94234375 -16.75 125.4921875 C-16.1725 125.98976563 -15.595 126.48734375 -15 127 C-15 127.66 -15 128.32 -15 129 C-13.68 129.33 -12.36 129.66 -11 130 C-11 130.66 -11 131.32 -11 132 C-9.35 132 -7.7 132 -6 132 C-6 132.99 -6 133.98 -6 135 C-4.68 135 -3.36 135 -2 135 C-2 94.41 -2 53.82 -2 12 C-1.67 12 -1.34 12 -1 12 C-0.67 8.04 -0.34 4.08 0 0 Z " fill="#16C1CC" transform="translate(68,86)"/>
<path d="M0 0 C0 0.66 0 1.32 0 2 C-2.31 2 -4.62 2 -7 2 C-7 2.66 -7 3.32 -7 4 C-7.66 4 -8.32 4 -9 4 C-8.98747192 5.17097733 -8.97494385 6.34195465 -8.96203613 7.54841614 C-8.84414033 18.56987489 -8.72641194 29.59133543 -8.60884857 40.61279774 C-8.54839902 46.27938234 -8.48788995 51.9459663 -8.42724609 57.61254883 C-8.36875209 63.07845095 -8.31041281 68.5443547 -8.25218201 74.01025963 C-8.22990968 76.09830471 -8.20758106 78.1863492 -8.18519592 80.27439308 C-8.15391506 83.19309969 -8.12283214 86.11180835 -8.09179688 89.03051758 C-8.08244614 89.89870117 -8.0730954 90.76688477 -8.0634613 91.66137695 C-8.03051579 94.7744031 -8 97.88677434 -8 101 C-10.66770526 98.33229474 -10.25027928 96.32050152 -10.28216553 92.69219971 C-10.27968811 91.8064325 -10.27721069 90.92066528 -10.2746582 90.00805664 C-10.27976913 89.07624069 -10.28488007 88.14442474 -10.29014587 87.18437195 C-10.30408758 84.09290204 -10.30308166 81.00165393 -10.30078125 77.91015625 C-10.30466569 75.76785702 -10.30899984 73.62555856 -10.31376648 71.48326111 C-10.32123857 66.98824571 -10.32093028 62.49330883 -10.31567383 57.99829102 C-10.30987823 52.22983829 -10.32680774 46.46170655 -10.3500185 40.69330692 C-10.3647301 36.26759452 -10.36563105 31.84195986 -10.36250877 27.41622734 C-10.36302329 25.28910117 -10.36828538 23.1619708 -10.37832069 21.03486824 C-10.39061776 18.06347758 -10.38393386 15.09271798 -10.37231445 12.12133789 C-10.37995819 11.23759491 -10.38760193 10.35385193 -10.39547729 9.44332886 C-10.38846298 8.6343364 -10.38144867 7.82534393 -10.3742218 6.99183655 C-10.37438954 6.28926255 -10.37455729 5.58668856 -10.37473011 4.86282444 C-9.87991775 2.40305796 -8.94936419 1.53807942 -7 0 C-3.86650268 -1.04449911 -3.01031744 -0.93423645 0 0 Z " fill="#CF9A7E" transform="translate(90,64)"/>
<path d="M0 0 C0.33 0 0.66 0 1 0 C1.16747651 3.29162599 1.33384361 6.58330713 1.5 9.875 C1.54769531 10.81214844 1.59539062 11.74929687 1.64453125 12.71484375 C1.68964844 13.61074219 1.73476562 14.50664062 1.78125 15.4296875 C1.82314453 16.25710449 1.86503906 17.08452148 1.90820312 17.93701172 C1.96842257 19.29034764 2 20.64532495 2 22 C-2.44503304 20.39910687 -6.34523785 18.17671281 -10.375 15.75 C-11.03894775 15.35176025 -11.70289551 14.95352051 -12.38696289 14.54321289 C-16.99418109 11.73080862 -21.07871272 8.73000498 -25 5 C-24.34 4.34 -23.68 3.68 -23 3 C-21.66102417 3.95043374 -20.32894573 4.91059147 -19 5.875 C-18.2575 6.40867188 -17.515 6.94234375 -16.75 7.4921875 C-16.1725 7.98976562 -15.595 8.48734375 -15 9 C-15 9.66 -15 10.32 -15 11 C-13.68 11.33 -12.36 11.66 -11 12 C-11 12.66 -11 13.32 -11 14 C-9.35 14 -7.7 14 -6 14 C-6 14.99 -6 15.98 -6 17 C-4.68 17 -3.36 17 -2 17 C-1.90912109 15.53626953 -1.90912109 15.53626953 -1.81640625 14.04296875 C-1.73261719 12.77066406 -1.64882812 11.49835938 -1.5625 10.1875 C-1.48128906 8.92292969 -1.40007812 7.65835938 -1.31640625 6.35546875 C-1 3 -1 3 0 0 Z " fill="#0DA8BA" transform="translate(68,204)"/>
<path d="M0 0 C0.33 0 0.66 0 1 0 C1 2.64 1 5.28 1 8 C1.66 8 2.32 8 3 8 C3.07418336 13.76575914 3.12861797 19.53124017 3.16479492 25.29736328 C3.17987695 27.25867553 3.20034547 29.21995408 3.22631836 31.18115234 C3.26272731 34.00106118 3.27973216 36.82052392 3.29296875 39.640625 C3.30845261 40.51680481 3.32393646 41.39298462 3.33988953 42.29571533 C3.34011612 43.11626404 3.34034271 43.93681274 3.34057617 44.78222656 C3.34723801 45.50170471 3.35389984 46.22118286 3.36076355 46.96246338 C2.89697174 49.58188763 1.70391093 50.99917193 0 53 C-0.16833062 46.09505384 -0.32820145 39.18994904 -0.48217773 32.28466797 C-0.5355642 29.93533894 -0.59089092 27.58605318 -0.64819336 25.23681641 C-0.73019752 21.86109749 -0.80523478 18.48528477 -0.87890625 15.109375 C-0.90594131 14.05820496 -0.93297638 13.00703491 -0.96083069 11.92401123 C-0.98092697 10.94329651 -1.00102325 9.96258179 -1.02172852 8.95214844 C-1.04171402 8.09055115 -1.06169952 7.22895386 -1.08229065 6.34124756 C-1.0027025 4.07688875 -0.63914593 2.16682577 0 0 Z " fill="#0DB7C7" transform="translate(67,154)"/>
<path d="M0 0 C0.62003906 0.18691406 1.24007812 0.37382812 1.87890625 0.56640625 C-1.12109375 3.56640625 -4.12109375 6.56640625 -7.12109375 9.56640625 C-7.8171875 10.30375 -8.51328125 11.04109375 -9.23046875 11.80078125 C-11.12109375 13.56640625 -11.12109375 13.56640625 -14.12109375 14.56640625 C-14.80479825 15.89108371 -15.47073561 17.22504258 -16.12109375 18.56640625 C-17.11109375 19.22640625 -18.10109375 19.88640625 -19.12109375 20.56640625 C-19.00079356 16.5964999 -17.60046761 14.79315405 -14.87109375 12.12890625 C-13.92556641 11.24138672 -13.92556641 11.24138672 -12.9609375 10.3359375 C-11.30022441 8.73869115 -9.86685673 7.11579872 -8.43359375 5.31640625 C-3.38167449 -0.69128152 -3.38167449 -0.69128152 0 0 Z " fill="#07D7E5" transform="translate(45.12109375,24.43359375)"/>
<path d="M0 0 C2 2 2 2 2 5 C2.66 5 3.32 5 4 5 C6.15884511 19.01321782 6.22187016 32.84297731 6 47 C5.67 47 5.34 47 5 47 C4.9906543 46.37770508 4.98130859 45.75541016 4.97167969 45.11425781 C4.72649862 32.01389685 3.75450097 19.61127454 0.83984375 6.82421875 C0 3 0 3 0 0 Z " fill="#0CE4F1" transform="translate(227,80)"/>
<path d="M0 0 C0.33 0.66 0.66 1.32 1 2 C-2.15354931 8.19447187 -2.15354931 8.19447187 -4.53515625 10.4609375 C-6.25837692 12.27146802 -6.87768389 13.83517703 -7.6875 16.1875 C-7.93886719 16.90292969 -8.19023438 17.61835938 -8.44921875 18.35546875 C-8.63097656 18.89816406 -8.81273438 19.44085938 -9 20 C-9.66 20 -10.32 20 -11 20 C-9.72048379 12.08647041 -5.26403504 5.86563905 0 0 Z " fill="#14B8C6" transform="translate(95,180)"/>
<path d="M0 0 C0.94314127 3.41610225 1.08065117 6.45134864 1 10 C1.66 10 2.32 10 3 10 C2.1875 12.4375 2.1875 12.4375 1 15 C0.01 15.33 -0.98 15.66 -2 16 C-2.20674944 10.21101581 -1.59162079 5.57067277 0 0 Z " fill="#10B7CA" transform="translate(81,210)"/>
<path d="M0 0 C3.80802445 1.4960096 5.69424557 3.66063151 8 7 C8.35169068 8.32860925 8.68770276 9.66158328 9 11 C10.47890069 12.73026102 10.47890069 12.73026102 12 14 C11.01 14 10.02 14 9 14 C7.29476885 12.07388399 5.80449683 10.20475316 4.3125 8.125 C3.89677734 7.56941406 3.48105469 7.01382813 3.05273438 6.44140625 C0 2.28086515 0 2.28086515 0 0 Z " fill="#10AEC0" transform="translate(18,179)"/>
<path d="M0 0 C0.66 0.33 1.32 0.66 2 1 C-0.84274704 4.00067743 -3.22459869 6.30757873 -7 8 C-7.66 8.66 -8.32 9.32 -9 10 C-9.99 9.34 -10.98 8.68 -12 8 C-8.04 5.36 -4.08 2.72 0 0 Z " fill="#1FBDC9" transform="translate(120,160)"/>
<path d="M0 0 C0.99 0.66 1.98 1.32 3 2 C-1.95 4.97 -1.95 4.97 -7 8 C-7.33 7.01 -7.66 6.02 -8 5 C-4.04 2.525 -4.04 2.525 0 0 Z " fill="#E79672" transform="translate(116,148)"/>
<path d="M0 0 C2 2 2 2 2 5 C2.66 5 3.32 5 4 5 C4.33 8.96 4.66 12.92 5 17 C4.34 17.33 3.68 17.66 3 18 C2.49645133 15.56318413 1.99703244 13.12564561 1.5 10.6875 C1.35691406 9.99720703 1.21382812 9.30691406 1.06640625 8.59570312 C0.47374956 5.67475227 0 2.98891878 0 0 Z " fill="#0ADCE9" transform="translate(227,80)"/>
<path d="M0 0 C3.27624608 2.18416406 4.03216364 3.66981539 6 7 C7.60999817 9.05480247 9.29655308 11.02031845 11 13 C7.87142986 11.6118265 5.71810826 9.98898122 3.3125 7.5625 C2.71050781 6.96566406 2.10851563 6.36882812 1.48828125 5.75390625 C0 4 0 4 -1 1 C-0.67 0.67 -0.34 0.34 0 0 Z " fill="#11A7B5" transform="translate(31,194)"/>
<path d="M0 0 C0.66 0.33 1.32 0.66 2 1 C1.01 1.33 0.02 1.66 -1 2 C-1.33 2.99 -1.66 3.98 -2 5 C-5.0625 6.6875 -5.0625 6.6875 -8 8 C-8.33 7.01 -8.66 6.02 -9 5 C-7.54735962 4.1361871 -6.0876837 3.28419546 -4.625 2.4375 C-3.40683594 1.72400391 -3.40683594 1.72400391 -2.1640625 0.99609375 C-1.44992188 0.66738281 -0.73578125 0.33867187 0 0 Z " fill="#1CC8D5" transform="translate(172,129)"/>
<path d="M0 0 C0.33 0 0.66 0 1 0 C1.33 2.31 1.66 4.62 2 7 C2.99 7.33 3.98 7.66 5 8 C5 8.66 5 9.32 5 10 C3.35 10.33 1.7 10.66 0 11 C-1.05404945 7.01803543 -0.84098656 4.01804691 0 0 Z " fill="#0995A8" transform="translate(78,218)"/>
<path d="M0 0 C4.455 2.97 4.455 2.97 9 6 C8.01 6.66 7.02 7.32 6 8 C3.69 6.02 1.38 4.04 -1 2 C-0.67 1.34 -0.34 0.68 0 0 Z " fill="#0CADBE" transform="translate(44,207)"/>
<path d="M0 0 C0.99 0.66 1.98 1.32 3 2 C1.71186658 2.83878455 0.41936744 3.67086783 -0.875 4.5 C-1.59429687 4.9640625 -2.31359375 5.428125 -3.0546875 5.90625 C-5 7 -5 7 -7 7 C-6.34 5.68 -5.68 4.36 -5 3 C-3.68 3 -2.36 3 -1 3 C-0.67 2.01 -0.34 1.02 0 0 Z " fill="#E59774" transform="translate(145,130)"/>
<path d="M0 0 C3.26460973 1.80412643 4.88929795 2.83394693 7 6 C6.625 8.1875 6.625 8.1875 6 10 C4.99421411 8.71283353 3.99553202 7.42011342 3 6.125 C2.443125 5.40570313 1.88625 4.68640625 1.3125 3.9453125 C0 2 0 2 0 0 Z " fill="#09DBE9" transform="translate(210,47)"/>
<path d="M0 0 C2.31 0.33 4.62 0.66 7 1 C7 1.66 7 2.32 7 3 C6.01 3.33 5.02 3.66 4 4 C3.67 4.66 3.34 5.32 3 6 C1.5 4.6875 1.5 4.6875 0 3 C0 2.01 0 1.02 0 0 Z " fill="#D3A893" transform="translate(84,164)"/>
<path d="M0 0 C0.66 0.33 1.32 0.66 2 1 C2 1.66 2 2.32 2 3 C-0.5 4.625 -0.5 4.625 -3 6 C-3.99 5.34 -4.98 4.68 -6 4 C-4.02 2.68 -2.04 1.36 0 0 Z " fill="#25C3CE" transform="translate(153,140)"/>
<path d="M0 0 C-0.1875 1.8125 -0.1875 1.8125 -1 4 C-3.4375 5.8125 -3.4375 5.8125 -6 7 C-6.66 6.67 -7.32 6.34 -8 6 C-7.0479279 4.99403703 -6.08812654 3.99538437 -5.125 3 C-4.59132813 2.443125 -4.05765625 1.88625 -3.5078125 1.3125 C-2 0 -2 0 0 0 Z " fill="#1EBCC8" transform="translate(108,169)"/>
<path d="M0 0 C0 0.66 0 1.32 0 2 C-2.31 2 -4.62 2 -7 2 C-7 2.66 -7 3.32 -7 4 C-7.66 4 -8.32 4 -9 4 C-8.1875 2.0625 -8.1875 2.0625 -7 0 C-3.86650268 -1.04449911 -3.01031744 -0.93423645 0 0 Z " fill="#DC977F" transform="translate(90,64)"/>
<path d="M0 0 C1 2 1 2 0.44140625 3.9453125 C0.15136719 4.66460937 -0.13867188 5.38390625 -0.4375 6.125 C-0.72496094 6.84945312 -1.01242188 7.57390625 -1.30859375 8.3203125 C-1.53675781 8.87460938 -1.76492187 9.42890625 -2 10 C-2.66 10 -3.32 10 -4 10 C-3.43454163 6.04179141 -2.19097652 3.3340947 0 0 Z " fill="#11AFBF" transform="translate(88,190)"/>
<path d="M0 0 C1.98 0 3.96 0 6 0 C4.71034824 1.37562854 3.37310707 2.70766393 2 4 C1.34 4 0.68 4 0 4 C0 2.68 0 1.36 0 0 Z " fill="#EA916E" transform="translate(91,162)"/>
<path d="M0 0 C0.66 0.33 1.32 0.66 2 1 C0.68 2.65 -0.64 4.3 -2 6 C-2 5.34 -2 4.68 -2 4 C-2.99 3.67 -3.98 3.34 -5 3 C-2.625 1.4375 -2.625 1.4375 0 0 Z " fill="#22C2CB" transform="translate(140,148)"/>
<path d="M0 0 C0.33 0 0.66 0 1 0 C1 2.64 1 5.28 1 8 C0.67 8 0.34 8 0 8 C0 5.36 0 2.72 0 0 Z " fill="#CFCFCF" transform="translate(78,116)"/>
<path d="M0 0 C0.33 0 0.66 0 1 0 C1 2.31 1 4.62 1 7 C0.67 7 0.34 7 0 7 C0 4.69 0 2.38 0 0 Z " fill="#B5C8C8" transform="translate(78,140)"/>
<path d="M0 0 C0.33 0 0.66 0 1 0 C1 1.98 1 3.96 1 6 C0.67 6 0.34 6 0 6 C0 4.02 0 2.04 0 0 Z " fill="#869B9B" transform="translate(78,100)"/>
<path d="M0 0 C0.33 0 0.66 0 1 0 C1 1.65 1 3.3 1 5 C0.67 5 0.34 5 0 5 C0 3.35 0 1.7 0 0 Z " fill="#C3C3C3" transform="translate(78,125)"/>
<path d="M0 0 C0.33 0 0.66 0 1 0 C1 1.65 1 3.3 1 5 C0.67 5 0.34 5 0 5 C0 3.35 0 1.7 0 0 Z " fill="#E5E5E5" transform="translate(78,109)"/>
<path d="M0 0 C0.33 0 0.66 0 1 0 C1 1.65 1 3.3 1 5 C0.67 5 0.34 5 0 5 C0 3.35 0 1.7 0 0 Z " fill="#989898" transform="translate(78,93)"/>
<path d="M0 0 C0.33 0 0.66 0 1 0 C1 1.65 1 3.3 1 5 C0.67 5 0.34 5 0 5 C0 3.35 0 1.7 0 0 Z " fill="#E5E5E5" transform="translate(78,85)"/>
<path d="M0 0 C0.33 0 0.66 0 1 0 C1 1.65 1 3.3 1 5 C0.67 5 0.34 5 0 5 C0 3.35 0 1.7 0 0 Z " fill="#E5E5E5" transform="translate(78,77)"/>
<path d="M0 0 C0.66 0.66 1.32 1.32 2 2 C1.01 2.495 1.01 2.495 0 3 C0 2.01 0 1.02 0 0 Z " fill="#74C9C9" transform="translate(139,84)"/>
<path d="M0 0 C0.66 0 1.32 0 2 0 C1.67 0.66 1.34 1.32 1 2 C0.67 1.34 0.34 0.68 0 0 Z " fill="#2AFFFF" transform="translate(175,108)"/>
<path d="M0 0 C0.66 0.66 1.32 1.32 2 2 C1.34 2 0.68 2 0 2 C0 1.34 0 0.68 0 0 Z " fill="#22EEEE" transform="translate(155,94)"/>
<path d="M0 0 C0.66 0.66 1.32 1.32 2 2 C1.34 2 0.68 2 0 2 C0 1.34 0 0.68 0 0 Z " fill="#00FFFF" transform="translate(151,91)"/>
<path d="M0 0 C2 1 2 1 2 1 Z " fill="#00FFFF" transform="translate(34,203)"/>
<path d="" fill="#00D4D4" transform="translate(0,0)"/>
<path d="" fill="#3FBFBF" transform="translate(0,0)"/>
<path d="" fill="#BFBFBF" transform="translate(0,0)"/>
<path d="" fill="#7F7F7F" transform="translate(0,0)"/>
<path d="M0 0 C2 1 2 1 2 1 Z " fill="#00FFFF" transform="translate(147,141)"/>
<path d="" fill="#FFFFFF" transform="translate(0,0)"/>
<path d="M0 0 C2 1 2 1 2 1 Z " fill="#00FFFF" transform="translate(170,105)"/>
<path d="M0 0 C2 1 2 1 2 1 Z " fill="#7FFFFF" transform="translate(103,65)"/>
<path d="" fill="#3FFFBF" transform="translate(0,0)"/>
<path d="M0 0 C2 1 2 1 2 1 Z " fill="#00FFFF" transform="translate(94,57)"/>
<path d="" fill="#000000" transform="translate(0,0)"/>
<path d="" fill="#007F7F" transform="translate(0,0)"/>
<path d="" fill="#0000FF" transform="translate(0,0)"/>
<path d="" fill="#00FFFF" transform="translate(0,0)"/>
<path d="" fill="#00FFFF" transform="translate(0,0)"/>
<path d="" fill="#00FFFF" transform="translate(0,0)"/>
<path d="" fill="#00FFFF" transform="translate(0,0)"/>
<path d="" fill="#007F7F" transform="translate(0,0)"/>
<path d="" fill="#00FFFF" transform="translate(0,0)"/>
<path d="" fill="#00FFFF" transform="translate(0,0)"/>
<path d="" fill="#00AAAA" transform="translate(0,0)"/>
<path d="" fill="#00FFFF" transform="translate(0,0)"/>
<path d="" fill="#00FFFF" transform="translate(0,0)"/>
<path d="" fill="#FFFFFF" transform="translate(0,0)"/>
<path d="" fill="#7FBF7F" transform="translate(0,0)"/>
<path d="" fill="#7F7F7F" transform="translate(0,0)"/>
<path d="" fill="#55AAAA" transform="translate(0,0)"/>
<path d="" fill="#55AAAA" transform="translate(0,0)"/>
<path d="" fill="#AAAAAA" transform="translate(0,0)"/>
<path d="" fill="#00FFFF" transform="translate(0,0)"/>
<path d="" fill="#00FFFF" transform="translate(0,0)"/>
<path d="" fill="#00FFFF" transform="translate(0,0)"/>
<path d="" fill="#00FFFF" transform="translate(0,0)"/>
<path d="" fill="#7F7F7F" transform="translate(0,0)"/>
<path d="" fill="#FFFFFF" transform="translate(0,0)"/>
<path d="" fill="#00FFFF" transform="translate(0,0)"/>
<path d="" fill="#7F7F7F" transform="translate(0,0)"/>
<path d="" fill="#FFFFFF" transform="translate(0,0)"/>
<path d="" fill="#00FFFF" transform="translate(0,0)"/>
<path d="" fill="#00FFFF" transform="translate(0,0)"/>
<path d="" fill="#00FFFF" transform="translate(0,0)"/>
<path d="" fill="#FFFFFF" transform="translate(0,0)"/>
<path d="" fill="#00FFFF" transform="translate(0,0)"/>
<path d="" fill="#7F7F7F" transform="translate(0,0)"/>
<path d="" fill="#BFBF7F" transform="translate(0,0)"/>
<path d="" fill="#3FBFBF" transform="translate(0,0)"/>
<path d="" fill="#AAAAAA" transform="translate(0,0)"/>
<path d="" fill="#7FFFFF" transform="translate(0,0)"/>
<path d="" fill="#AAAAAA" transform="translate(0,0)"/>
<path d="" fill="#00FFFF" transform="translate(0,0)"/>
<path d="" fill="#7FFFFF" transform="translate(0,0)"/>
<path d="" fill="#00FFFF" transform="translate(0,0)"/>
<path d="" fill="#00FFFF" transform="translate(0,0)"/>
<path d="" fill="#00FFFF" transform="translate(0,0)"/>
<path d="" fill="#00FFFF" transform="translate(0,0)"/>
<path d="" fill="#7F7F7F" transform="translate(0,0)"/>
<path d="" fill="#FFFFFF" transform="translate(0,0)"/>
<path d="" fill="#FFFFFF" transform="translate(0,0)"/>
<path d="" fill="#FFFFFF" transform="translate(0,0)"/>
<path d="" fill="#FFFFFF" transform="translate(0,0)"/>
<path d="" fill="#FFFFFF" transform="translate(0,0)"/>
<path d="" fill="#00FFFF" transform="translate(0,0)"/>
<path d="" fill="#00FFFF" transform="translate(0,0)"/>
<path d="" fill="#00FFFF" transform="translate(0,0)"/>
<path d="" fill="#00FFFF" transform="translate(0,0)"/>
<path d="" fill="#FFFFFF" transform="translate(0,0)"/>
<path d="" fill="#7F7F7F" transform="translate(0,0)"/>
<path d="" fill="#7F7F7F" transform="translate(0,0)"/>
<path d="" fill="#FFFFFF" transform="translate(0,0)"/>
<path d="" fill="#FFFFFF" transform="translate(0,0)"/>
<path d="" fill="#FFFFFF" transform="translate(0,0)"/>
<path d="" fill="#FFFFFF" transform="translate(0,0)"/>
<path d="" fill="#FFFFFF" transform="translate(0,0)"/>
<path d="" fill="#FFFFFF" transform="translate(0,0)"/>
<path d="" fill="#00FFFF" transform="translate(0,0)"/>
<path d="" fill="#00FFFF" transform="translate(0,0)"/>
<path d="" fill="#55AAAA" transform="translate(0,0)"/>
<path d="" fill="#00FFFF" transform="translate(0,0)"/>
<path d="" fill="#7FFF7F" transform="translate(0,0)"/>
<path d="" fill="#00FFFF" transform="translate(0,0)"/>
<path d="" fill="#00FFFF" transform="translate(0,0)"/>
<path d="" fill="#7FFF7F" transform="translate(0,0)"/>
<path d="" fill="#7FFFFF" transform="translate(0,0)"/>
<path d="" fill="#00FFFF" transform="translate(0,0)"/>
<path d="" fill="#00FFFF" transform="translate(0,0)"/>
<path d="" fill="#00FFFF" transform="translate(0,0)"/>
<path d="" fill="#00FFFF" transform="translate(0,0)"/>
<path d="" fill="#00FFFF" transform="translate(0,0)"/>
<path d="" fill="#00FFFF" transform="translate(0,0)"/>
<path d="" fill="#00FFFF" transform="translate(0,0)"/>
<path d="" fill="#00FFFF" transform="translate(0,0)"/>
</svg>
